<?xml version="1.0" standalone="no"?>
<!DOCTYPE svg PUBLIC "-//W3C//DTD SVG 20010904//EN"
 "http://www.w3.org/TR/2001/REC-SVG-20010904/DTD/svg10.dtd">
<svg version="1.0" xmlns="http://www.w3.org/2000/svg"
 width="512.000000pt" height="512.000000pt" viewBox="0 0 512.000000 512.000000"
 preserveAspectRatio="xMidYMid meet">
<metadata>
Created by potrace 1.11, written by Peter Selinger 2001-2013
</metadata>
<g transform="translate(0.000000,512.000000) scale(0.100000,-0.100000)"
fill="#000000" stroke="none">
<path d="M2389 4395 c-2 -1 -33 -6 -69 -10 -36 -4 -67 -8 -70 -10 -3 -2 -27
-6 -54 -9 -27 -4 -53 -9 -58 -12 -8 -5 -38 -13 -68 -18 -8 -1 -23 -6 -32 -10
-9 -4 -22 -9 -30 -10 -23 -4 -92 -27 -127 -43 -18 -8 -39 -16 -45 -17 -36 -6
-330 -172 -372 -211 -6 -5 -22 -17 -34 -25 -62 -41 -205 -179 -292 -280 -56
-66 -160 -216 -193 -280 -66 -128 -128 -267 -140 -315 -1 -5 -4 -17 -7 -25
-14 -41 -28 -88 -32 -110 -3 -14 -10 -43 -15 -65 -9 -40 -16 -76 -29 -170 -18
-129 -4 -481 23 -565 3 -10 7 -31 9 -46 6 -44 41 -166 66 -229 4 -11 18 -45
30 -75 29 -72 82 -180 92 -186 5 -3 6 -9 3 -14 -3 -4 2 -13 10 -20 8 -7 15
-16 15 -21 0 -5 21 -39 47 -77 41 -60 61 -86 138 -182 41 -51 249 -250 261
-250 2 0 30 -20 61 -43 74 -56 229 -147 237 -140 3 4 6 2 6 -4 0 -9 29 -24 70
-38 3 0 23 -9 45 -19 120 -54 299 -105 425 -122 25 -3 49 -9 54 -12 5 -3 90
-6 190 -8 173 -2 312 10 426 36 25 6 54 12 65 14 11 2 31 9 45 14 14 5 30 10
35 11 20 2 139 43 184 63 162 71 365 194 470 284 161 138 334 345 424 509 57
105 141 295 130 295 -3 0 0 7 7 15 7 8 9 15 5 15 -4 0 -3 6 2 13 6 6 22 59 36
117 44 180 51 244 52 445 0 88 -4 191 -8 230 -9 75 -42 235 -56 275 -5 14 -14
45 -22 70 -7 25 -16 49 -21 55 -4 5 -8 14 -8 21 0 6 -9 32 -20 58 -12 25 -21
48 -21 51 0 4 -56 112 -93 180 -20 36 -105 159 -131 189 -14 16 -25 32 -25 35
0 11 -190 202 -250 252 -71 60 -197 149 -210 149 -6 0 -10 4 -10 9 0 5 -8 11
-17 14 -10 3 -51 24 -91 46 -100 55 -268 122 -371 147 -9 2 -34 8 -56 13 -22
6 -53 12 -70 15 -16 3 -55 11 -85 17 -50 10 -423 23 -431 14z"/>
</g>
</svg>
