<?xml version="1.0" encoding="UTF-8"?>
<svg width="11px" height="34px" viewBox="0 0 11 34" version="1.1" xmlns="http://www.w3.org/2000/svg" xmlns:xlink="http://www.w3.org/1999/xlink">
  <g stroke="none">
    <g fill="#FF5829" fill-rule="nonzero">
      <g>
        <path d="M2.51248375,4.4892132 C2.51248375,5.07332278 2.51248375,7.68044861 2.51248375,7.68044861 L0.182285714,7.68044861 L0.182285714,11.5827036 L2.51248375,11.5827036 L2.51248375,23.1788333 L7.29920518,23.1788333 L7.29920518,11.583027 L10.5113175,11.583027 C10.5113175,11.583027 10.8121459,9.71192554 10.9579679,7.66606008 C10.5398911,7.66606008 7.31730537,7.66606008 7.31730537,7.66606008 C7.31730537,7.66606008 7.31730537,5.39585214 7.31730537,4.9979312 C7.31730537,4.59914803 7.83920313,4.06273077 8.35503169,4.06273077 C8.86989347,4.06273077 9.95654938,4.06273077 10.9630166,4.06273077 C10.9630166,3.53143302 10.9630166,1.69568318 10.9630166,0.000261904762 C9.6194132,0.000261904762 8.09083337,0.000261904762 7.4170444,0.000261904762 C2.39416114,-7.54332869e-06 2.51248375,3.90612754 2.51248375,4.4892132 Z"></path>
      </g>
    </g>
    <g stroke="#FF5829" stroke-width="1px" fill="none" transform="translate(0, 5)" style="opacity: 0.5">
      <g>
        <path d="M2.51248375,4.4892132 C2.51248375,5.07332278 2.51248375,7.68044861 2.51248375,7.68044861 L0.182285714,7.68044861 L0.182285714,11.5827036 L2.51248375,11.5827036 L2.51248375,23.1788333 L7.29920518,23.1788333 L7.29920518,11.583027 L10.5113175,11.583027 C10.5113175,11.583027 10.8121459,9.71192554 10.9579679,7.66606008 C10.5398911,7.66606008 7.31730537,7.66606008 7.31730537,7.66606008 C7.31730537,7.66606008 7.31730537,5.39585214 7.31730537,4.9979312 C7.31730537,4.59914803 7.83920313,4.06273077 8.35503169,4.06273077 C8.86989347,4.06273077 9.95654938,4.06273077 10.9630166,4.06273077 C10.9630166,3.53143302 10.9630166,1.69568318 10.9630166,0.000261904762 C9.6194132,0.000261904762 8.09083337,0.000261904762 7.4170444,0.000261904762 C2.39416114,-7.54332869e-06 2.51248375,3.90612754 2.51248375,4.4892132 Z"></path>
      </g>
    </g>
    <g stroke="#FF5829" stroke-width="1px" fill="none" transform="translate(0, 10)" style="opacity: 0.25">
      <g>
        <path d="M2.51248375,4.4892132 C2.51248375,5.07332278 2.51248375,7.68044861 2.51248375,7.68044861 L0.182285714,7.68044861 L0.182285714,11.5827036 L2.51248375,11.5827036 L2.51248375,23.1788333 L7.29920518,23.1788333 L7.29920518,11.583027 L10.5113175,11.583027 C10.5113175,11.583027 10.8121459,9.71192554 10.9579679,7.66606008 C10.5398911,7.66606008 7.31730537,7.66606008 7.31730537,7.66606008 C7.31730537,7.66606008 7.31730537,5.39585214 7.31730537,4.9979312 C7.31730537,4.59914803 7.83920313,4.06273077 8.35503169,4.06273077 C8.86989347,4.06273077 9.95654938,4.06273077 10.9630166,4.06273077 C10.9630166,3.53143302 10.9630166,1.69568318 10.9630166,0.000261904762 C9.6194132,0.000261904762 8.09083337,0.000261904762 7.4170444,0.000261904762 C2.39416114,-7.54332869e-06 2.51248375,3.90612754 2.51248375,4.4892132 Z"></path>
      </g>
    </g>
  </g>
</svg>