<?xml version="1.0" encoding="utf-8"?>
<!-- Generator: Adobe Illustrator 22.1.0, SVG Export Plug-In . SVG Version: 6.00 Build 0)  -->
<svg version="1.1" id="Layer_1" xmlns="http://www.w3.org/2000/svg" xmlns:xlink="http://www.w3.org/1999/xlink" x="0px" y="0px"
	 width="21" height="25" style="enable-background:new 0 0 20.9 24.6;" xml:space="preserve">
<style type="text/css">
	.st0{opacity:0.25;fill:none;stroke:#FFFFFF;stroke-width:0.5;stroke-miterlimit:10;}
	.st1{opacity:0.5;fill:none;stroke:#FFFFFF;stroke-width:0.5;stroke-miterlimit:10;}
	.st2{fill:#FFFFFF;}
</style>
<g>
	<path class="st0" d="M0.2,14v0.2c0,5.5,4.7,10.2,10.3,10.2c5.6,0,10.2-4.6,10.2-10.2S16.1,4,10.5,4C7.8,4,5.7,4.8,3.8,6.4L3.4,6.8
		L2.8,4L1.6,4.2l0.5,5L7,9.8L6.8,8.5L4.3,7.9l0.6-0.4C5,7.4,5.2,7.3,5.4,7.1C5.6,7,5.9,6.8,6.2,6.5c1.5-1,3.2-1.3,4.1-1.3
		c4.8,0,8.9,4.1,8.9,8.9c0,4.9-4,8.9-8.8,8.9c-4.9,0-8.9-4-8.9-8.9V14H0.2z"/>
</g>
<g>
	<path class="st1" d="M0.2,12v0.2c0,5.5,4.7,10.2,10.3,10.2c5.6,0,10.2-4.6,10.2-10.2S16.1,2,10.5,2C7.8,2,5.7,2.8,3.8,4.4L3.4,4.8
		L2.8,2L1.6,2.2l0.5,5L7,7.8L6.8,6.5L4.3,5.9l0.6-0.4C5,5.4,5.2,5.3,5.4,5.1C5.6,5,5.9,4.8,6.2,4.5c1.5-1,3.2-1.3,4.1-1.3
		c4.8,0,8.9,4.1,8.9,8.9c0,4.9-4,8.9-8.8,8.9c-4.9,0-8.9-4-8.9-8.9V12H0.2z"/>
</g>
<g>
	<path class="st2" d="M0.2,10v0.2c0,5.5,4.7,10.2,10.3,10.2c5.6,0,10.2-4.6,10.2-10.2S16.1,0,10.5,0C7.8,0,5.7,0.8,3.8,2.4L3.4,2.8
		L2.8,0L1.6,0.2l0.5,5L7,5.8L6.8,4.5L4.3,3.9l0.6-0.4C5,3.4,5.2,3.3,5.4,3.1C5.6,3,5.9,2.8,6.2,2.5c1.5-1,3.2-1.3,4.1-1.3
		c4.8,0,8.9,4.1,8.9,8.9c0,4.9-4,8.9-8.8,8.9c-4.9,0-8.9-4-8.9-8.9V10H0.2z"/>
</g>
</svg>
