<?xml version="1.0" encoding="UTF-8"?>
<svg width="26px" height="32px" viewBox="0 0 26 32" version="1.1" xmlns="http://www.w3.org/2000/svg" xmlns:xlink="http://www.w3.org/1999/xlink">
  <g>
    <g fill="#FF5829">
      <g>
        <path d="M23.4,5.6 C23.2,14.8 17.4,21.2 8.6,21.6 C5,21.8 2.4,20.6 0,19.2 C2.6,19.6000784 6,18.6000784 7.8,17 C5.2,16.8 3.6,15.4 2.8,13.2 C3.6,13.4 4.4,13.2 5,13.2 C2.6,12.4 1,11 0.8,7.8 C1.4,8.2 2.2,8.4 3,8.4 C1.2,7.4 0,3.6 1.4,1.2 C4,4 7.2,6.4 12.4,6.8 C11,1.2 18.6000784,-1.8 21.6000784,2 C23.0000784,1.8 24.0000784,1.2 25.0000784,0.8 C24.6000784,2.2 23.8000784,3 22.8000784,3.8 C23.8000784,3.6 24.8000784,3.4 25.6000784,3 C25.4,4 24.4,4.8 23.4,5.6 Z"></path>
      </g>
    </g>
    <g stroke-width="1px" stroke="#FF5829" fill="none" transform="translate(0, 5)" style="opacity: 0.5">
      <g>
        <path d="M23.4,5.6 C23.2,14.8 17.4,21.2 8.6,21.6 C5,21.8 2.4,20.6 0,19.2 C2.6,19.6000784 6,18.6000784 7.8,17 C5.2,16.8 3.6,15.4 2.8,13.2 C3.6,13.4 4.4,13.2 5,13.2 C2.6,12.4 1,11 0.8,7.8 C1.4,8.2 2.2,8.4 3,8.4 C1.2,7.4 0,3.6 1.4,1.2 C4,4 7.2,6.4 12.4,6.8 C11,1.2 18.6000784,-1.8 21.6000784,2 C23.0000784,1.8 24.0000784,1.2 25.0000784,0.8 C24.6000784,2.2 23.8000784,3 22.8000784,3.8 C23.8000784,3.6 24.8000784,3.4 25.6000784,3 C25.4,4 24.4,4.8 23.4,5.6 Z"></path>
      </g>
    </g>
    <g stroke-width="1px" stroke="#FF5829" fill="none" transform="translate(0, 10)" style="opacity: 0.25">
      <g>
        <path d="M23.4,5.6 C23.2,14.8 17.4,21.2 8.6,21.6 C5,21.8 2.4,20.6 0,19.2 C2.6,19.6000784 6,18.6000784 7.8,17 C5.2,16.8 3.6,15.4 2.8,13.2 C3.6,13.4 4.4,13.2 5,13.2 C2.6,12.4 1,11 0.8,7.8 C1.4,8.2 2.2,8.4 3,8.4 C1.2,7.4 0,3.6 1.4,1.2 C4,4 7.2,6.4 12.4,6.8 C11,1.2 18.6000784,-1.8 21.6000784,2 C23.0000784,1.8 24.0000784,1.2 25.0000784,0.8 C24.6000784,2.2 23.8000784,3 22.8000784,3.8 C23.8000784,3.6 24.8000784,3.4 25.6000784,3 C25.4,4 24.4,4.8 23.4,5.6 Z"></path>
      </g>
    </g>
  </g>
</svg>